<svg xmlns="http://www.w3.org/2000/svg" xmlns:xlink="http://www.w3.org/1999/xlink" width="56.986" height="53.486" viewBox="0 0 56.986 53.486"><defs><style>.a{fill:#efcc00;}.b{fill:none;stroke:#efcc00;stroke-linecap:round;stroke-miterlimit:10;stroke-width:3px;}.c{fill:url(#a);}.d{fill:url(#b);}</style><linearGradient id="a" x1="0.255" y1="1.021" x2="0.692" y2="0.293" gradientUnits="objectBoundingBox"><stop offset="0" stop-color="#f2f2f2"/><stop offset="1" stop-color="#cfcfcf"/></linearGradient><linearGradient id="b" x1="0.725" y1="0.661" x2="0.034" y2="0.236" gradientUnits="objectBoundingBox"><stop offset="0" stop-color="#fff"/><stop offset="1" stop-color="#fff" stop-opacity="0"/></linearGradient></defs><g transform="translate(-6 -6.5)"><circle class="a" cx="12.59" cy="12.59" r="12.59" transform="translate(27.21 15.41)"/><line class="b" y2="4.44" transform="translate(39.8 8)"/><line class="b" y2="4.44" transform="translate(39.8 43.56)"/><line class="b" x2="4.45" transform="translate(19.8 28)"/><line class="b" x2="4.44" transform="translate(55.36 28)"/><line class="b" x2="3.14" y2="3.14" transform="translate(25.66 13.86)"/><line class="b" x2="3.14" y2="3.14" transform="translate(50.8 39)"/><line class="b" y1="3.14" x2="3.14" transform="translate(25.66 39)"/><line class="b" y1="3.14" x2="3.14" transform="translate(50.8 13.86)"/><g transform="translate(-0.11 5.99)"><path class="c" d="M23.66,15.9a17.49,17.49,0,0,1,15.47,9.32A13.75,13.75,0,1,1,46,50.84l-22.39.06a17.5,17.5,0,0,1,0-35Z"/><circle class="d" cx="13.75" cy="13.75" r="13.75" transform="matrix(0.269, -0.963, 0.963, 0.269, 29.21, 46.596)"/></g></g></svg>