<svg xmlns="http://www.w3.org/2000/svg" xmlns:xlink="http://www.w3.org/1999/xlink" width="56.986" height="51.986" viewBox="0 0 56.986 51.986"><defs><style>.a{fill:#6d95a0;}.b{fill:url(#a);}.c{fill:url(#b);}</style><linearGradient id="a" x1="0.255" y1="1.021" x2="0.692" y2="0.293" gradientUnits="objectBoundingBox"><stop offset="0" stop-color="#f2f2f2"/><stop offset="1" stop-color="#cfcfcf"/></linearGradient><linearGradient id="b" x1="0.725" y1="0.661" x2="0.034" y2="0.236" gradientUnits="objectBoundingBox"><stop offset="0" stop-color="#fff"/><stop offset="1" stop-color="#fff" stop-opacity="0"/></linearGradient></defs><g transform="translate(-6.11 -8.01)"><path class="a" d="M50,26.71A13.88,13.88,0,0,1,37.86,8.77.6.6,0,0,0,37,8.08,13.88,13.88,0,1,0,55.92,27a.6.6,0,0,0-.69-.89,13.91,13.91,0,0,1-5.23.6Z"/><g transform="translate(0 6)"><path class="b" d="M23.66,15.9a17.49,17.49,0,0,1,15.47,9.32A13.75,13.75,0,1,1,46,50.84l-22.39.06a17.5,17.5,0,0,1,0-35Z"/><circle class="c" cx="13.75" cy="13.75" r="13.75" transform="matrix(0.269, -0.963, 0.963, 0.269, 29.21, 46.596)"/></g></g></svg>