<svg xmlns="http://www.w3.org/2000/svg" xmlns:xlink="http://www.w3.org/1999/xlink" width="56.986" height="62.1" viewBox="0 0 56.986 62.1"><defs><style>.a{fill:#6d95a0;}.b,.c{fill:none;stroke-linecap:round;stroke-miterlimit:10;stroke-width:3px;}.b{stroke:#0baeff;}.c{stroke:#b9c1c6;}.d{fill:url(#a);}.e{fill:url(#b);}.f{fill:#e0e0e0;}.g{fill:#c4c4c4;}</style><linearGradient id="a" x1="0.255" y1="1.021" x2="0.692" y2="0.293" gradientUnits="objectBoundingBox"><stop offset="0" stop-color="#f2f2f2"/><stop offset="1" stop-color="#cfcfcf"/></linearGradient><linearGradient id="b" x1="0.725" y1="0.661" x2="0.034" y2="0.236" gradientUnits="objectBoundingBox"><stop offset="0" stop-color="#fff"/><stop offset="1" stop-color="#fff" stop-opacity="0"/></linearGradient></defs><g transform="translate(-6.11 -2.01)"><path class="a" d="M50,20.71A13.88,13.88,0,0,1,37.86,2.77.6.6,0,0,0,37,2.08,13.88,13.88,0,1,0,55.92,21a.6.6,0,0,0-.69-.89A13.91,13.91,0,0,1,50,20.71Z"/><line class="b" y2="7" transform="translate(32.5 55.61)"/><line class="b" y2="7" transform="translate(26.5 53.61)"/><line class="c" y2="0.1" transform="translate(26.5 60.51)"/><line class="c" y2="0.1" transform="translate(32.5 62.51)"/><line class="b" y2="7" transform="translate(38.5 53.61)"/><line class="c" y2="0.1" transform="translate(38.5 60.51)"/><g transform="translate(0)"><path class="d" d="M23.66,15.9a17.49,17.49,0,0,1,15.47,9.32A13.75,13.75,0,1,1,46,50.84l-22.39.06a17.5,17.5,0,0,1,0-35Z"/><circle class="e" cx="13.75" cy="13.75" r="13.75" transform="matrix(0.269, -0.963, 0.963, 0.269, 29.21, 46.596)"/></g><circle class="f" cx="1.5" cy="1.5" r="1.5" transform="translate(9.111 50.14)"/><circle class="f" cx="1.5" cy="1.5" r="1.5" transform="translate(45.111 53.14)"/><circle class="f" cx="1.5" cy="1.5" r="1.5" transform="translate(52.111 55.14)"/><circle class="g" cx="2" cy="2" r="2" transform="translate(15.611 53.64)"/></g></svg>