<svg xmlns="http://www.w3.org/2000/svg" xmlns:xlink="http://www.w3.org/1999/xlink" width="56.986" height="63.5" viewBox="0 0 56.986 63.5"><defs><style>.a{fill:#efcc00;}.b,.c{fill:none;stroke-linecap:round;stroke-miterlimit:10;stroke-width:3px;}.b{stroke:#efcc00;}.c{stroke:#0baeff;}.d{fill:url(#a);}.e{fill:url(#b);}</style><linearGradient id="a" x1="0.255" y1="1.021" x2="0.692" y2="0.293" gradientUnits="objectBoundingBox"><stop offset="0" stop-color="#f2f2f2"/><stop offset="1" stop-color="#cfcfcf"/></linearGradient><linearGradient id="b" x1="0.725" y1="0.661" x2="0.034" y2="0.236" gradientUnits="objectBoundingBox"><stop offset="0" stop-color="#fff"/><stop offset="1" stop-color="#fff" stop-opacity="0"/></linearGradient></defs><g transform="translate(-6 -0.5)"><circle class="a" cx="12.59" cy="12.59" r="12.59" transform="translate(27.21 9.41)"/><line class="b" y2="4.44" transform="translate(39.8 2)"/><line class="b" y2="4.44" transform="translate(39.8 37.56)"/><line class="b" x2="4.45" transform="translate(19.8 22)"/><line class="b" x2="4.44" transform="translate(55.36 22)"/><line class="b" x2="3.14" y2="3.14" transform="translate(25.66 7.86)"/><line class="b" x2="3.14" y2="3.14" transform="translate(50.8 33)"/><line class="b" y1="3.14" x2="3.14" transform="translate(25.66 33)"/><line class="b" y1="3.14" x2="3.14" transform="translate(50.8 7.86)"/><line class="c" y2="1" transform="translate(32.5 55.5)"/><line class="c" y2="1" transform="translate(26.5 53.5)"/><line class="c" y2="1" transform="translate(38.5 53.5)"/><line class="c" y2="1" transform="translate(38.5 59.5)"/><line class="c" y2="1" transform="translate(26.5 59.5)"/><line class="c" y2="1" transform="translate(32.5 61.5)"/><g transform="translate(-0.11 -0.01)"><g transform="translate(0)"><path class="d" d="M23.66,15.9a17.49,17.49,0,0,1,15.47,9.32A13.75,13.75,0,1,1,46,50.84l-22.39.06a17.5,17.5,0,0,1,0-35Z"/><circle class="e" cx="13.75" cy="13.75" r="13.75" transform="matrix(0.269, -0.963, 0.963, 0.269, 29.21, 46.596)"/></g></g></g></svg>